# xmcd
#
# Track frame offsets:
#	150
#	10350
#	23850
#	33975
#	47475
#
# Disc length: 1667 seconds
#
# Revision: 1
# Processed by: cddbd v1.5.1PL0 Copyright (c) Steve Scherf et al.
# Submitted via: CDex 1.50Beta5
#
DISCID=32068105
DTITLE=ケロQ - 風ノ音　時ノ音
DYEAR=1900
DGENRE=Game
TTITLE0=風の中の青い鳥 [Rinia Version]
TTITLE1=遠い言葉 [Rinia Version]
TTITLE2=風の中の青い鳥 [Instrumental]
TTITLE3=遠い言葉 [Instrumental]
TTITLE4=Extra.
EXTD=
EXTT0=
EXTT1=
EXTT2=
EXTT3=
EXTT4=
PLAYORDER=
